<?xml version="1.0" encoding="iso-8859-1"?>
<!-- Uploaded to: SVG Repo, www.svgrepo.com, Generator: SVG Repo Mixer Tools -->
<svg height="800px" width="800px" version="1.1" id="Layer_1" xmlns="http://www.w3.org/2000/svg" xmlns:xlink="http://www.w3.org/1999/xlink" 
	 viewBox="0 0 512.002 512.002" xml:space="preserve">
<g>
	<path style="fill:#E64C3C;" d="M123.587,512.002H35.311v-64.238c0-13.277,10.761-24.038,24.038-24.038H99.55
		c13.277,0,24.038,10.761,24.038,24.038V512.002z"/>
	<path style="fill:#A0291F;" d="M211.863,512.002h-88.276v-64.238c0-13.277,10.761-24.038,24.038-24.038h40.201
		c13.277,0,24.038,10.761,24.038,24.038V512.002z"/>
	<path style="fill:#C03A2B;" d="M300.139,512.002h-88.276v-64.238c0-13.277,10.761-24.038,24.038-24.038h40.201
		c13.277,0,24.038,10.761,24.038,24.038V512.002z"/>
	<path style="fill:#E64C3C;" d="M388.415,512.002h-88.276v-64.238c0-13.277,10.761-24.038,24.038-24.038h40.201
		c13.277,0,24.038,10.761,24.038,24.038V512.002z"/>
	<path style="fill:#A0291F;" d="M476.691,512.002h-88.276v-64.238c0-13.277,10.761-24.038,24.038-24.038h40.201
		c13.277,0,24.038,10.761,24.038,24.038V512.002z"/>
	<polygon style="fill:#323F5B;" points="0.001,211.864 512.001,211.864 512.001,0.002 0.001,0.002 	"/>
	<path style="fill:#C03A2B;" d="M147.628,423.726h20.1v-64.238c0-13.277-10.77-24.038-24.046-24.038H103.49
		c-13.277,0-24.038,10.761-24.038,24.038v64.238h20.092c11.052,0,20.268,7.495,23.075,17.655h1.933
		C127.369,431.221,136.576,423.726,147.628,423.726"/>
	<path style="fill:#802F34;" d="M231.96,335.45h-40.192c-13.277,0-24.046,10.761-24.046,24.038v64.238h20.1
		c11.052,0,20.259,7.495,23.075,17.655h1.933c2.807-10.161,12.023-17.655,23.075-17.655h20.092v-64.238
		C255.997,346.211,245.237,335.45,231.96,335.45"/>
	<path style="fill:#A0291F;" d="M324.18,423.726h20.1v-64.238c0-13.277-10.77-24.038-24.046-24.038h-40.192
		c-13.277,0-24.038,10.761-24.038,24.038v64.238h20.092c11.052,0,20.268,7.495,23.075,17.655h1.933
		C303.921,431.221,313.128,423.726,324.18,423.726"/>
	<path style="fill:#802F34;" d="M412.456,423.726h20.1v-64.238c0-13.277-10.77-24.038-24.046-24.038h-40.192
		c-13.277,0-24.038,10.761-24.038,24.038v64.238h20.092c11.052,0,20.268,7.495,23.075,17.655h1.933
		C392.196,431.221,401.404,423.726,412.456,423.726"/>
	<path style="fill:#E64C3C;" d="M191.766,335.45h20.1v-64.238c0-13.277-10.77-24.038-24.046-24.038h-40.192
		c-13.277,0-24.038,10.761-24.038,24.038v64.238h20.092c13.277,0,24.046,10.761,24.046,24.038
		C167.729,346.211,178.489,335.45,191.766,335.45"/>
	<path style="fill:#C03A2B;" d="M280.042,335.45h20.1v-64.238c0-13.277-10.77-24.038-24.046-24.038h-40.192
		c-13.277,0-24.038,10.761-24.038,24.038v64.238h20.092c13.277,0,24.046,10.761,24.046,24.038
		C256.004,346.211,266.765,335.45,280.042,335.45"/>
	<g>
		<path style="fill:#E64C3C;" d="M368.318,335.45h20.1v-64.238c0-13.277-10.77-24.038-24.046-24.038H324.18
			c-13.277,0-24.038,10.761-24.038,24.038v64.238h20.092c13.277,0,24.046,10.761,24.046,24.038
			C344.28,346.211,355.041,335.45,368.318,335.45"/>
		<path style="fill:#E64C3C;" d="M441.38,3.655c0,71,25.106,120.541,70.621,120.541V0H441.38V3.655z"/>
		<path style="fill:#E64C3C;" d="M459.035,211.864c0,0-1.651-87.667,52.965-87.667v87.667H459.035z"/>
		<path style="fill:#E64C3C;" d="M70.622,3.655c0,71-25.106,120.541-70.621,120.541V0h70.621V3.655z"/>
		<path style="fill:#E64C3C;" d="M52.966,211.864c0,0,1.651-87.667-52.966-87.667v87.667H52.966z"/>
	</g>
	<path style="fill:#26B99A;" d="M326.87,106.182c0-39.142-31.726-70.868-70.868-70.868s-70.868,31.726-70.868,70.868
		s31.726,70.868,70.868,70.868S326.87,145.323,326.87,106.182"/>
	<polygon style="fill:#FFFFFF;" points="238.346,132.416 238.346,79.45 291.311,105.933 	"/>
</g>
</svg>